<svg xmlns="http://www.w3.org/2000/svg" viewBox="0 0 775.07 306.72"><defs><style>.cls-2{fill:#d41217}</style></defs><g id="Слой_2"><g id="Слой_1-2"><path d="M37.5 302.34a9.65 9.65 0 01-6.89-2.34q-2.4-2.34-2.54-7v-5.74q.13-4.57 2.65-6.95a9.35 9.35 0 016.78-2.41 9.31 9.31 0 016.75 2.41q2.52 2.37 2.65 6.95c0 1.32.07 2.27.07 2.86s0 1.52-.07 2.88q-.13 4.68-2.58 7a9.45 9.45 0 01-6.82 2.34zm0-2.89a5.74 5.74 0 004.28-1.62 7.35 7.35 0 001.73-5c0-1.36.06-2.26.06-2.71s0-1.41-.06-2.72a7.22 7.22 0 00-1.77-5 5.67 5.67 0 00-4.24-1.62 5.85 5.85 0 00-4.31 1.62 7.35 7.35 0 00-1.73 5v5.43a7.35 7.35 0 001.73 5 5.85 5.85 0 004.31 1.62zM52.69 302a.86.86 0 01-.57-.2.84.84 0 01-.21-.58v-22.15a.77.77 0 01.78-.82h14.76a.73.73 0 01.58.24.71.71 0 01.24.58v1.35a.78.78 0 01-.27.58.77.77 0 01-.58.2H55.24v6.86H62a7.9 7.9 0 015.59 1.86 6.45 6.45 0 012 5 7 7 0 01-.88 3.4 6.79 6.79 0 01-2.62 2.68 7.88 7.88 0 01-4.09 1zm8.86-2.75a4.57 4.57 0 003.36-1.25 4.39 4.39 0 001.25-3.16 3.77 3.77 0 00-1.16-2.95 4.7 4.7 0 00-3.42-1.12h-6.34v8.48zM78.43 302a.86.86 0 01-.57-.2.84.84 0 01-.21-.58v-20.08h-5.36a.86.86 0 01-.58-.21.89.89 0 01-.2-.58v-1.28a.89.89 0 01.2-.58.8.8 0 01.58-.24h7.91a.68.68 0 01.54.24.66.66 0 01.26.51v8.24h4.88a8.14 8.14 0 015.74 1.87 7 7 0 012 5.4 8 8 0 01-.88 3.69 6.65 6.65 0 01-2.64 2.8 8.19 8.19 0 01-4.24 1zm7.16-2.85a4.49 4.49 0 003.41-1.26 4.67 4.67 0 001.26-3.42q0-4.38-4.65-4.38H81v9.06zM98.61 302a.88.88 0 01-.57-.2.84.84 0 01-.21-.58v-22.15a.76.76 0 01.21-.58.78.78 0 01.57-.24h14a.68.68 0 01.54.24.71.71 0 01.24.58v1.28a.84.84 0 01-.21.58.74.74 0 01-.57.21h-11.52v7.43h10.79a.65.65 0 01.54.23.73.73 0 01.24.58v1.25a.78.78 0 01-.24.58.7.7 0 01-.54.21h-10.79v7.7h11.81a.74.74 0 01.57.2.76.76 0 01.21.58v1.32a.78.78 0 01-.24.58.75.75 0 01-.54.2zm18.39 4.72a.84.84 0 01-.58-.21.79.79 0 01-.2-.57v-6.21a.77.77 0 01.2-.55.82.82 0 01.58-.18h.71q3.3 0 3.29-12.62V279a.73.73 0 01.2-.54.8.8 0 01.58-.24H135a.82.82 0 01.82.82V299h1.66a.82.82 0 01.58.23.68.68 0 01.23.55v6.21a.68.68 0 01-.23.54.73.73 0 01-.58.24h-1.73a.84.84 0 01-.58-.21.79.79 0 01-.2-.57V302h-15.41v3.94a.71.71 0 01-.23.54.73.73 0 01-.58.24zm15.5-7.77V281.3h-8.24v5.47a44.55 44.55 0 01-.54 7.73 10.78 10.78 0 01-1.67 4.45zm10.71 3.05a.91.91 0 01-.58-.2 1 1 0 01-.2-.61v-22.12a.76.76 0 01.78-.82H145a.68.68 0 01.54.24.78.78 0 01.24.58v17.54l12.65-17.88a.9.9 0 01.85-.48h1.66a.66.66 0 01.54.24.71.71 0 01.24.58v22.15a.78.78 0 01-.24.58.73.73 0 01-.54.2h-1.73a.89.89 0 01-.58-.2.82.82 0 01-.23-.58v-17.4l-12.62 17.7a.92.92 0 01-.85.48zm25.18 0a.71.71 0 01-.78-.78v-22.15a.76.76 0 01.21-.58.75.75 0 01.57-.24h1.73a.73.73 0 01.58.24.71.71 0 01.24.58v9.36h11.67v-9.36a.8.8 0 01.2-.58.78.78 0 01.58-.24h1.73a.73.73 0 01.58.24.74.74 0 01.23.58v22.15a.82.82 0 01-.23.58.91.91 0 01-.58.2h-1.73a.7.7 0 01-.78-.78v-9.74h-11.67v9.74a.78.78 0 01-.24.58.89.89 0 01-.58.2zm24.22 0a.71.71 0 01-.78-.78v-22.15a.76.76 0 01.21-.58.75.75 0 01.57-.24h14a.69.69 0 01.55.24.74.74 0 01.23.58v1.28a.84.84 0 01-.2.58.76.76 0 01-.58.21h-11.52v7.43h10.79a.68.68 0 01.54.23.73.73 0 01.24.58v1.25a.78.78 0 01-.24.58.73.73 0 01-.54.21h-10.79v7.7h11.81a.75.75 0 01.57.2.76.76 0 01.21.58v1.32a.78.78 0 01-.24.58.77.77 0 01-.54.2zm20.58 0a.89.89 0 01-.58-.2.84.84 0 01-.2-.58v-22.15a.76.76 0 01.2-.58.78.78 0 01.58-.24h1.73a.69.69 0 01.57.24.71.71 0 01.24.58v9.36h11.67v-9.36a.77.77 0 01.78-.82h1.73a.73.73 0 01.58.24.71.71 0 01.24.58v22.15a.78.78 0 01-.24.58.89.89 0 01-.58.2h-1.73a.86.86 0 01-.57-.2.84.84 0 01-.21-.58v-9.74h-11.67v9.74a.78.78 0 01-.24.58.86.86 0 01-.57.2zm24.22 0a.89.89 0 01-.58-.2.84.84 0 01-.2-.58v-22.15a.76.76 0 01.2-.58.78.78 0 01.58-.24h1.73a.69.69 0 01.57.24.71.71 0 01.24.58v9.36h11.67v-9.36a.77.77 0 01.78-.82h1.73a.73.73 0 01.58.24.71.71 0 01.24.58v22.15a.78.78 0 01-.24.58.89.89 0 01-.58.2h-1.73a.86.86 0 01-.57-.2.84.84 0 01-.21-.58v-9.74H240v9.74a.78.78 0 01-.24.58.88.88 0 01-.57.2zm21.84 0a.65.65 0 01-.47-.2.66.66 0 01-.21-.48 1.07 1.07 0 010-.37L267 279a1.06 1.06 0 011.09-.75h2.3a1.06 1.06 0 011.09.75l8.4 22 .07.37a.66.66 0 01-.21.48.65.65 0 01-.47.2h-1.73a.91.91 0 01-.58-.17 1.12 1.12 0 01-.27-.41l-1.87-4.81H263.7l-1.87 4.81a.88.88 0 01-.31.41.81.81 0 01-.54.17zm14.59-8.31l-4.58-12.05-4.58 12.05zm25.44-15.44a.69.69 0 01.55.24.68.68 0 01.23.54v22.19a.82.82 0 01-.23.58.77.77 0 01-.55.2h-1.73a.88.88 0 01-.57-.2.78.78 0 01-.24-.58V293h-4.65l-5.12 8.1a2.6 2.6 0 01-.55.72 1.32 1.32 0 01-.78.2H284a.67.67 0 01-.48-.2.65.65 0 01-.2-.48.79.79 0 01.1-.37l5.26-8.28a6.25 6.25 0 01-3.63-2.41 7.66 7.66 0 01-1.29-4.58 8 8 0 01.85-3.66 6.69 6.69 0 012.61-2.72 8.22 8.22 0 014.27-1.05zm-2.54 2.85h-4.95a4.47 4.47 0 00-3.4 1.29 4.64 4.64 0 00-1.22 3.36q0 4.38 4.62 4.38h4.95zm26.1 21.24c-3 0-5.34-.82-6.92-2.44a10 10 0 01-2.51-6.76v-6.05a9.82 9.82 0 012.54-6.72c1.59-1.65 3.88-2.48 6.89-2.48A11 11 0 01328 279a7.73 7.73 0 013.19 2.78 7.56 7.56 0 011.19 3.7v.07a.61.61 0 01-.24.47.73.73 0 01-.47.17h-1.87a.84.84 0 01-.85-.78 5.53 5.53 0 00-2.07-3.56 6.82 6.82 0 00-4-1.05q-5.83 0-6 6.47v5.71q.19 6.48 6 6.47a7 7 0 004-1 5.52 5.52 0 002.07-3.6 1.09 1.09 0 01.31-.61.81.81 0 01.54-.17h1.87a.69.69 0 01.51.21.49.49 0 01.2.47 7.6 7.6 0 01-1.19 3.73 8 8 0 01-3.19 2.82 11.37 11.37 0 01-5.16 1.04zm20.02-.34a.89.89 0 01-.58-.2.84.84 0 01-.2-.58v-20h-6.52a.91.91 0 01-.58-.2.89.89 0 01-.2-.58v-1.42a.89.89 0 01.2-.58.8.8 0 01.58-.24h16.36a.7.7 0 01.57.24.71.71 0 01.24.58v1.42a.78.78 0 01-.24.58.88.88 0 01-.57.2h-6.49v20a.78.78 0 01-.23.58.89.89 0 01-.58.2zm14.45 0a.86.86 0 01-.57-.2.84.84 0 01-.21-.58v-22.15a.77.77 0 01.78-.82h8.62a9 9 0 016 1.87 7.72 7.72 0 010 10.79 9.1 9.1 0 01-6 1.83h-6v8.48a.78.78 0 01-.24.58.89.89 0 01-.58.2zm8.45-12.11a5.42 5.42 0 003.73-1.12 4.08 4.08 0 001.29-3.26 4.18 4.18 0 00-1.25-3.26 5.42 5.42 0 00-3.77-1.15h-5.87v8.79zm21.09 12.45A9.65 9.65 0 01380 300q-2.4-2.34-2.54-7v-5.74q.13-4.57 2.65-6.95a10.7 10.7 0 0113.53 0q2.52 2.37 2.65 6.95c0 1.32.07 2.27.07 2.86s0 1.52-.07 2.88q-.13 4.68-2.58 7a9.47 9.47 0 01-6.86 2.34zm0-2.89a5.74 5.74 0 004.28-1.62 7.35 7.35 0 001.73-5c0-1.36.06-2.26.06-2.71s0-1.41-.06-2.72a7.22 7.22 0 00-1.77-5 5.68 5.68 0 00-4.24-1.62 5.85 5.85 0 00-4.31 1.62 7.35 7.35 0 00-1.73 5v5.43a7.35 7.35 0 001.73 5 5.85 5.85 0 004.31 1.62zM402 302a.91.91 0 01-.58-.2 1 1 0 01-.2-.61v-22.12a.76.76 0 01.78-.82h1.77a.68.68 0 01.54.24.78.78 0 01.24.58v17.54l12.65-17.88a.9.9 0 01.85-.48h1.66a.69.69 0 01.55.24.74.74 0 01.23.58v22.15a.82.82 0 01-.23.58.77.77 0 01-.55.2H418a.86.86 0 01-.57-.2.78.78 0 01-.24-.58v-17.4l-12.62 17.7a.91.91 0 01-.85.48zm30.41 0a.86.86 0 01-.57-.2.84.84 0 01-.21-.58v-20h-6.51a.7.7 0 01-.78-.78v-1.42a.89.89 0 01.2-.58.78.78 0 01.58-.24h16.35a.73.73 0 01.58.24.71.71 0 01.24.58v1.42a.78.78 0 01-.24.58.89.89 0 01-.58.2H435v20a.82.82 0 01-.23.58.91.91 0 01-.58.2zm14.46 0a.7.7 0 01-.78-.78v-22.15a.8.8 0 01.2-.58.78.78 0 01.58-.24h14a.66.66 0 01.54.24.71.71 0 01.24.58v1.28a.84.84 0 01-.2.58.78.78 0 01-.58.21h-11.52v7.43h10.79a.68.68 0 01.54.23.73.73 0 01.24.58v1.25a.78.78 0 01-.24.58.73.73 0 01-.54.21h-10.79v7.7h11.8a.7.7 0 01.78.78v1.32a.74.74 0 01-.78.78zm35.27 0a.89.89 0 01-.58-.2.84.84 0 01-.2-.58V281.3h-8.42v5.47a38.92 38.92 0 01-.78 8.72 9.26 9.26 0 01-2.44 4.78 7 7 0 01-4.41 1.7.69.69 0 01-.58-.21.82.82 0 01-.24-.61v-1.49a.75.75 0 01.72-.78c1.47-.21 2.58-1.29 3.32-3.26s1.15-5.07 1.15-9.29V279a.7.7 0 01.21-.54.78.78 0 01.57-.24h13.44a.66.66 0 01.54.24.71.71 0 01.24.58v22.15a.78.78 0 01-.24.58.73.73 0 01-.54.2zm9.23 0a.89.89 0 01-.58-.2.84.84 0 01-.2-.58V279a.69.69 0 01.2-.54.78.78 0 01.58-.24h1.73a.76.76 0 01.57.24.66.66 0 01.24.54v8.24h5.19a8.14 8.14 0 015.74 1.87 7 7 0 012 5.4 8 8 0 01-.88 3.69 6.65 6.65 0 01-2.62 2.75 8.19 8.19 0 01-4.24 1zm7.43-2.85a4.5 4.5 0 003.39-1.26 4.67 4.67 0 001.26-3.42q0-4.38-4.65-4.38h-4.89v9.06zm13.01 2.85a.7.7 0 01-.78-.78v-22.15a.8.8 0 01.2-.58.78.78 0 01.58-.24h1.73a.73.73 0 01.58.24.71.71 0 01.23.58v9.36H526v-9.36a.76.76 0 01.2-.58.78.78 0 01.58-.24h1.73a.7.7 0 01.57.24.71.71 0 01.24.58v22.15a.78.78 0 01-.24.58.86.86 0 01-.57.2h-1.73a.89.89 0 01-.58-.2.84.84 0 01-.2-.58v-9.74h-11.65v9.74a.78.78 0 01-.23.58.89.89 0 01-.58.2zm21.85 0a.67.67 0 01-.48-.2.65.65 0 01-.2-.48 1.52 1.52 0 010-.37l8.44-21.95a1.06 1.06 0 011.09-.75h2.31a1.05 1.05 0 011.08.75l8.38 22 .07.37a.68.68 0 01-.68.68h-1.73a.91.91 0 01-.58-.17 1.12 1.12 0 01-.27-.41l-1.86-4.81H538.1l-1.87 4.81a.86.86 0 01-.84.58zm14.58-8.31l-4.58-12.05-4.58 12.05zm25.45-15.44a.68.68 0 01.54.24.66.66 0 01.24.54v22.19a.78.78 0 01-.24.58.77.77 0 01-.54.2H572a.89.89 0 01-.58-.2.78.78 0 01-.24-.58V293h-4.65l-5.12 8.1a2.8 2.8 0 01-.54.72 1.32 1.32 0 01-.78.2h-1.63a.65.65 0 01-.47-.2.66.66 0 01-.21-.48.93.93 0 01.1-.37l5.26-8.28a6.25 6.25 0 01-3.63-2.41 7.66 7.66 0 01-1.29-4.58 8.14 8.14 0 01.78-3.7 6.75 6.75 0 012.61-2.72 8.23 8.23 0 014.28-1.05zm-2.55 2.85h-4.95a4.43 4.43 0 00-3.39 1.29 4.6 4.6 0 00-1.22 3.36c0 2.92 1.53 4.38 4.61 4.38h4.95zm34.92 19.71a.61.61 0 01.1.38.77.77 0 01-.23.57.68.68 0 01-.54.24h-1.94a.94.94 0 01-.54-.14 1.54 1.54 0 01-.34-.37l-6.52-10h-4v9.74a.78.78 0 01-.24.58.89.89 0 01-.58.2h-1.73a.86.86 0 01-.57-.2.84.84 0 01-.21-.58v-22.16a.77.77 0 01.78-.82h1.73a.73.73 0 01.58.24.71.71 0 01.24.58v9.36h3.87l6-9.67a1.26 1.26 0 011.15-.54h1.84a.62.62 0 01.71.68 1 1 0 01-.17.44l-6.51 10.38zm11.66 1.53a9.65 9.65 0 01-6.89-2.31c-1.61-1.56-2.45-3.9-2.54-7v-5.74q.13-4.57 2.64-6.95a10.71 10.71 0 0113.54 0c1.67 1.58 2.56 3.9 2.65 6.95 0 1.32.06 2.27.06 2.86s0 1.52-.06 2.88q-.14 4.68-2.58 7a9.47 9.47 0 01-6.82 2.31zm0-2.89a5.71 5.71 0 004.27-1.62 7.3 7.3 0 001.73-5c0-1.36.07-2.26.07-2.71s0-1.41-.07-2.72a7.26 7.26 0 00-1.76-5 5.68 5.68 0 00-4.24-1.62 5.83 5.83 0 00-4.31 1.62 7.35 7.35 0 00-1.73 5v5.43a7.35 7.35 0 001.73 5 5.83 5.83 0 004.31 1.62zm15.19 2.55a.7.7 0 01-.78-.78v-22.15a.8.8 0 01.2-.58.78.78 0 01.58-.24h1.7a1 1 0 01.88.54l7.16 13.71 7.22-13.71a.87.87 0 01.28-.37.94.94 0 01.57-.17h1.66a.82.82 0 01.82.82v22.15a.78.78 0 01-.24.58.89.89 0 01-.58.2h-1.66a.71.71 0 01-.78-.78v-16.69l-5.66 11.06a1.14 1.14 0 01-1.09.71h-1.05a1.14 1.14 0 01-1.09-.71l-5.7-11.06v16.69a.78.78 0 01-.24.58.73.73 0 01-.54.2zm26.94 0a.89.89 0 01-.58-.2.84.84 0 01-.2-.58v-22.15a.76.76 0 01.2-.58.78.78 0 01.58-.24h16.72a.73.73 0 01.58.24.71.71 0 01.24.58v22.15a.78.78 0 01-.24.58.89.89 0 01-.58.2h-1.73a.86.86 0 01-.57-.2.84.84 0 01-.21-.58V281.3h-11.67v19.92a.78.78 0 01-.24.58.88.88 0 01-.57.2zm21.84 0a.65.65 0 01-.47-.2.66.66 0 01-.21-.48 1.07 1.07 0 010-.37l8.45-21.95a1.06 1.06 0 011.09-.75h2.3a1.06 1.06 0 011.09.75l8.38 22 .07.37a.66.66 0 01-.21.48.65.65 0 01-.47.2H700a.91.91 0 01-.58-.17 1 1 0 01-.27-.41l-1.87-4.81h-11.14l-1.87 4.81a1 1 0 01-.31.41.81.81 0 01-.54.17zm14.59-8.31l-4.58-12.05-4.58 12.05zm10.51 8.31a.88.88 0 01-.57-.2.84.84 0 01-.2-.58v-22.15a.76.76 0 01.2-.58.78.78 0 01.57-.24h1.74a.7.7 0 01.57.24.71.71 0 01.24.58v9.36H721v-9.36a.76.76 0 01.78-.82h1.73a.73.73 0 01.58.24.71.71 0 01.24.58v22.15a.78.78 0 01-.24.58.89.89 0 01-.58.2h-1.73a.91.91 0 01-.58-.2.89.89 0 01-.2-.58v-9.74h-11.66v9.74a.78.78 0 01-.24.58.88.88 0 01-.57.2zm24.21 0a.89.89 0 01-.58-.2.9.9 0 01-.21-.61v-22.12a.76.76 0 01.21-.58.78.78 0 01.58-.24h1.76a.66.66 0 01.54.24.78.78 0 01.24.58v17.54l12.65-17.88a.92.92 0 01.85-.48h1.66a.69.69 0 01.55.24.71.71 0 01.24.58v22.15a.78.78 0 01-.24.58.77.77 0 01-.55.2H747a.88.88 0 01-.57-.2.78.78 0 01-.24-.58v-17.4l-12.62 17.7a.9.9 0 01-.85.48zm40.12-23.75a.69.69 0 01.55.24.65.65 0 01.23.54v22.19a.74.74 0 01-.78.78h-1.73a.86.86 0 01-.57-.2.78.78 0 01-.24-.58V293h-4.65l-5.12 8.1a2.8 2.8 0 01-.54.72 1.38 1.38 0 01-.79.2h-1.62a.67.67 0 01-.48-.2.69.69 0 01-.2-.48.79.79 0 01.1-.37l5.26-8.28a6.25 6.25 0 01-3.63-2.41 7.66 7.66 0 01-1.29-4.58 8 8 0 01.85-3.66 6.69 6.69 0 012.61-2.72 8.22 8.22 0 014.27-1.05zm-2.54 2.85h-5a4.47 4.47 0 00-3.4 1.29 4.64 4.64 0 00-1.22 3.36q0 4.38 4.62 4.38h5z" fill="#5f6060"/><path class="cls-2" d="M123 58.5l-82.5 110v-131H0v-20C0 5.5 8 0 21 0h102zm0 173.5V122L40.5 232zm34-38.5L131 232h125.5c39 1.5 75-33.5 73.5-68v-34c1.5-41.5-32.5-71.5-73.5-71.5h-37l15-21H330v-16c0-13-3.5-21.5-17.5-21.5H213l-51 69c-10 13-6.5 28.5 8 28.5h64.5c16 0 21.19 8.58 22 24.5v51.5c0 12.5-11 20-22 20z"/><path class="cls-2" d="M346.5 21.5v16H428c10.5 0 19 16.5 10.5 28L312.5 232h191l26.5-38.5h-91.5l72-96c10.4-15.71 10.88-24.27 0-39l-32.5-41C468.77 3.88 461.37.36 445 0h-80c-14.5 0-18.5 6.5-18.5 21.5zm265 210.5l29-38.5c-25.2-1.34-33.26-7.19-33.5-29.5V65.5c0-17 8-28 25.5-28h45c16.5 0 22.5 9.5 22.5 28V114l59-81.5C741.36 8.23 726 0 685.5 0h-74c-54 0-83.5 35.5-81.5 89v58.5c0 56.5 32 84.5 81.5 84.5zM775 76L659.5 232H700c38.5 0 77-30.5 75-84.5z"/></g></g></svg>