<svg width="307" height="60" viewBox="0 0 307 60" fill="none" xmlns="http://www.w3.org/2000/svg">
<g clip-path="url(#clip0_2535_12518)">
<rect width="307" height="60" fill="#F8F8F8"/>
<path d="M33.8199 30.9147C33.8211 30.9447 33.8153 30.9745 33.8028 31.0024C33.7903 31.0302 33.7714 31.0556 33.7472 31.0768C33.7231 31.0979 33.6943 31.1145 33.6625 31.1255C33.6307 31.1365 33.5968 31.1416 33.5627 31.1405H27.7228C27.6546 31.1405 27.5891 31.1168 27.5409 31.0744C27.4926 31.0321 27.4655 30.9746 27.4655 30.9147V22.7025C27.4655 22.6426 27.4384 22.5851 27.3902 22.5428C27.3419 22.5004 27.2765 22.4766 27.2083 22.4766H6.73017C6.66262 22.4785 6.59843 22.5029 6.55064 22.5449C6.50285 22.5868 6.47506 22.6432 6.47292 22.7025V30.9147C6.47411 30.9447 6.46828 30.9745 6.45577 31.0024C6.44327 31.0302 6.42435 31.0556 6.40021 31.0768C6.37608 31.0979 6.34726 31.1145 6.3155 31.1255C6.28375 31.1365 6.24974 31.1416 6.21564 31.1405H0.272877C0.204647 31.1405 0.139215 31.1168 0.0909687 31.0744C0.0427226 31.0321 0.015625 30.9746 0.015625 30.9147V17.4108C0.015625 17.3811 0.0222716 17.3518 0.0352002 17.3244C0.0481289 17.297 0.0670797 17.2721 0.0909687 17.2511C0.114858 17.2301 0.143213 17.2135 0.174425 17.2022C0.205638 17.1908 0.239093 17.1849 0.272877 17.1849H33.5627C33.5968 17.1839 33.6307 17.189 33.6625 17.2C33.6943 17.211 33.7231 17.2276 33.7472 17.2488C33.7714 17.2699 33.7903 17.2952 33.8028 17.3231C33.8153 17.351 33.8211 17.3808 33.8199 17.4108V30.9147Z" fill="#1D1D1B"/>
<path d="M33.5642 34.573H0.257262C0.11518 34.573 0 34.6741 0 34.7988V39.6916C0 39.8163 0.11518 39.9174 0.257262 39.9174H33.5642C33.7063 39.9174 33.8215 39.8163 33.8215 39.6916V34.7988C33.8215 34.6741 33.7063 34.573 33.5642 34.573Z" fill="#E40D2C"/>
<path d="M33.5556 42.2959H0.265838C0.119019 42.2959 0 42.4004 0 42.5292V46.4434C0 46.5723 0.119019 46.6768 0.265838 46.6768H33.5556C33.7024 46.6768 33.8215 46.5723 33.8215 46.4434V42.5292C33.8215 42.4004 33.7024 42.2959 33.5556 42.2959Z" fill="#E40D2C"/>
<path d="M33.5385 49.063H0.282989C0.126698 49.063 0 49.1742 0 49.3114V51.5319C0 51.6691 0.126698 51.7803 0.282989 51.7803H33.5385C33.6948 51.7803 33.8215 51.6691 33.8215 51.5319V49.3114C33.8215 49.1742 33.6948 49.063 33.5385 49.063Z" fill="#E40D2C"/>
<path d="M302.556 34.5655H307.007C307.082 34.5655 307.154 34.5394 307.207 34.4928C307.26 34.4462 307.29 34.383 307.29 34.3171V17.6969C307.29 17.631 307.26 17.5678 307.207 17.5212C307.154 17.4747 307.082 17.4485 307.007 17.4485H302.556C302.481 17.4485 302.409 17.4747 302.356 17.5212C302.303 17.5678 302.273 17.631 302.273 17.6969V34.3171C302.273 34.383 302.303 34.4462 302.356 34.4928C302.409 34.5394 302.481 34.5655 302.556 34.5655Z" fill="#1D1D1B"/>
<path d="M156.809 17.5688L148.431 28.2952V17.7118C148.431 17.6459 148.401 17.5827 148.348 17.5362C148.295 17.4896 148.223 17.4634 148.148 17.4634H143.697C143.66 17.4634 143.623 17.4698 143.589 17.4823C143.554 17.4948 143.523 17.5131 143.497 17.5362C143.471 17.5592 143.45 17.5866 143.436 17.6167C143.421 17.6469 143.414 17.6792 143.414 17.7118V34.588H148.559C148.607 34.5871 148.653 34.5764 148.695 34.5568C148.737 34.5372 148.772 34.5092 148.799 34.475L156.903 23.9368V34.3471C156.903 34.4137 156.933 34.4777 156.986 34.5254C157.038 34.5732 157.11 34.6011 157.186 34.603H161.637C161.713 34.6011 161.785 34.5732 161.837 34.5254C161.89 34.4777 161.92 34.4137 161.92 34.3471V17.7268C161.92 17.6942 161.913 17.6619 161.898 17.6318C161.884 17.6016 161.863 17.5743 161.837 17.5512C161.811 17.5281 161.779 17.5098 161.745 17.4974C161.711 17.4849 161.674 17.4784 161.637 17.4784H157.049C157.004 17.4784 156.959 17.488 156.919 17.5063C156.878 17.5247 156.844 17.5512 156.817 17.5838" fill="#1D1D1B"/>
<path d="M186.199 17.5688L177.821 28.2952V17.7118C177.821 17.6459 177.792 17.5827 177.738 17.5362C177.685 17.4896 177.613 17.4634 177.538 17.4634H173.088C173.013 17.4634 172.941 17.4896 172.888 17.5362C172.835 17.5827 172.805 17.6459 172.805 17.7118V34.588H177.95C177.997 34.5871 178.044 34.5764 178.085 34.5568C178.127 34.5372 178.163 34.5092 178.19 34.475L186.294 23.9368V34.3471C186.294 34.4137 186.323 34.4777 186.376 34.5254C186.429 34.5732 186.501 34.6011 186.577 34.603H191.027C191.103 34.6011 191.175 34.5732 191.228 34.5254C191.281 34.4777 191.31 34.4137 191.31 34.3471V17.7268C191.31 17.661 191.281 17.5978 191.228 17.5512C191.174 17.5046 191.103 17.4784 191.027 17.4784H186.431C186.386 17.4784 186.341 17.488 186.301 17.5063C186.26 17.5247 186.226 17.5512 186.199 17.5838" fill="#1D1D1B"/>
<path d="M219.625 17.4485C219.579 17.4478 219.534 17.4571 219.494 17.4755C219.453 17.4939 219.419 17.5208 219.393 17.5539L213.39 25.1338C213.364 25.1665 213.33 25.1931 213.289 25.2115C213.249 25.2298 213.204 25.2394 213.159 25.2394C213.113 25.2394 213.069 25.2298 213.028 25.2115C212.988 25.1931 212.953 25.1665 212.927 25.1338L206.925 17.5463C206.899 17.5133 206.864 17.4864 206.824 17.468C206.784 17.4496 206.739 17.4403 206.693 17.441H202.611C202.536 17.441 202.464 17.4671 202.411 17.5137C202.358 17.5603 202.328 17.6235 202.328 17.6894V34.3096C202.328 34.3762 202.358 34.4402 202.41 34.488C202.463 34.5358 202.535 34.5636 202.611 34.5655H207.062C207.138 34.5636 207.21 34.5358 207.262 34.488C207.315 34.4402 207.345 34.3762 207.345 34.3096V24.4413L211.632 29.9664C211.66 29.9991 211.697 30.0257 211.738 30.0439C211.78 30.0622 211.826 30.0717 211.873 30.0717H214.445C214.491 30.0724 214.536 30.0631 214.576 30.0447C214.617 30.0264 214.651 29.9994 214.677 29.9664L218.964 24.5241V34.3096C218.964 34.3762 218.994 34.4402 219.047 34.488C219.1 34.5358 219.172 34.5636 219.247 34.5655H223.698C223.774 34.5636 223.846 34.5358 223.899 34.488C223.952 34.4402 223.981 34.3762 223.981 34.3096V17.6894C223.981 17.6235 223.951 17.5603 223.898 17.5137C223.845 17.4671 223.773 17.441 223.698 17.441L219.625 17.4485Z" fill="#1D1D1B"/>
<path d="M281.314 17.4485H265.158C265.083 17.4485 265.011 17.4747 264.958 17.5212C264.905 17.5678 264.875 17.631 264.875 17.6969V20.625C264.875 20.6909 264.905 20.7541 264.958 20.8006C265.011 20.8472 265.083 20.8734 265.158 20.8734H270.44C270.516 20.8734 270.589 20.8993 270.644 20.9457C270.698 20.9921 270.73 21.0552 270.732 21.1218V34.3171C270.731 34.3504 270.737 34.3835 270.751 34.4145C270.765 34.4455 270.785 34.4738 270.812 34.4977C270.838 34.5215 270.87 34.5405 270.905 34.5535C270.94 34.5664 270.977 34.5731 271.015 34.5731H275.457C275.495 34.5731 275.532 34.5664 275.567 34.5535C275.602 34.5405 275.634 34.5215 275.66 34.4977C275.687 34.4738 275.707 34.4455 275.721 34.4145C275.735 34.3835 275.741 34.3504 275.74 34.3171V21.1218C275.742 21.0552 275.774 20.9921 275.828 20.9457C275.883 20.8993 275.956 20.8734 276.032 20.8734H281.314C281.389 20.8734 281.461 20.8472 281.514 20.8006C281.567 20.7541 281.597 20.6909 281.597 20.625V17.6969C281.597 17.631 281.567 17.5678 281.514 17.5212C281.461 17.4747 281.389 17.4485 281.314 17.4485Z" fill="#1D1D1B"/>
<path d="M141.179 17.4485H127.064C126.989 17.4485 126.917 17.4747 126.864 17.5212C126.811 17.5678 126.781 17.631 126.781 17.6969V34.3247C126.781 34.3906 126.811 34.4537 126.864 34.5003C126.917 34.5469 126.989 34.5731 127.064 34.5731H131.515C131.552 34.5731 131.589 34.5666 131.623 34.5542C131.658 34.5417 131.689 34.5234 131.715 34.5003C131.741 34.4772 131.762 34.4499 131.776 34.4197C131.791 34.3896 131.798 34.3573 131.798 34.3247V21.1218C131.798 21.0559 131.828 20.9928 131.881 20.9462C131.934 20.8996 132.006 20.8734 132.081 20.8734H141.179C141.254 20.8734 141.326 20.8472 141.379 20.8006C141.433 20.7541 141.462 20.6909 141.462 20.625V17.6969C141.462 17.631 141.433 17.5678 141.379 17.5212C141.326 17.4747 141.254 17.4485 141.179 17.4485Z" fill="#1D1D1B"/>
<path d="M46.9089 17.4483C46.8395 17.4479 46.7722 17.4699 46.72 17.5101C46.6679 17.5504 46.6344 17.6061 46.626 17.6666L44.2677 31.1179H42.2439C42.1689 31.1179 42.0969 31.144 42.0438 31.1906C41.9907 31.2372 41.9609 31.3004 41.9609 31.3663V34.2944C41.9609 34.3603 41.9907 34.4235 42.0438 34.47C42.0969 34.5166 42.1689 34.5428 42.2439 34.5428H62.5334C62.6084 34.5428 62.6804 34.5166 62.7335 34.47C62.7865 34.4235 62.8163 34.3603 62.8163 34.2944V17.6666C62.8163 17.6007 62.7865 17.5376 62.7335 17.491C62.6804 17.4444 62.6084 17.4182 62.5334 17.4182L46.9089 17.4483ZM57.5167 31.1179H49.6016C49.5614 31.1181 49.5216 31.1109 49.4848 31.0965C49.448 31.0822 49.4151 31.0612 49.3884 31.0348C49.3616 31.0085 49.3415 30.9774 49.3295 30.9437C49.3174 30.91 49.3138 30.8744 49.3186 30.8394L50.6564 21.0539C50.6648 20.9934 50.6983 20.9377 50.7505 20.8974C50.8027 20.8572 50.8699 20.8352 50.9394 20.8356H57.5167C57.5918 20.8356 57.6638 20.8618 57.7168 20.9084C57.7699 20.9549 57.7997 21.0181 57.7997 21.084V30.8695C57.7997 30.9354 57.7699 30.9985 57.7168 31.0451C57.6638 31.0917 57.5918 31.1179 57.5167 31.1179Z" fill="#1D1D1B"/>
<path d="M65.5733 20.9411V31.118C65.5733 32.1162 66.0251 33.0735 66.8292 33.7793C67.6333 34.4851 68.7239 34.8816 69.8611 34.8816H79.457C80.5941 34.8816 81.6847 34.4851 82.4888 33.7793C83.2929 33.0735 83.7447 32.1162 83.7447 31.118V20.9787C83.7447 19.9806 83.2929 19.0233 82.4888 18.3174C81.6847 17.6116 80.5941 17.2151 79.457 17.2151H69.8268C68.6896 17.2151 67.599 17.6116 66.7949 18.3174C65.9908 19.0233 65.5391 19.9806 65.5391 20.9787L65.5733 20.9411ZM78.3507 31.4266H70.9158C70.8408 31.4266 70.7688 31.4004 70.7157 31.3539C70.6627 31.3073 70.6329 31.2441 70.6329 31.1782V20.8809C70.6329 20.815 70.6627 20.7518 70.7157 20.7052C70.7688 20.6586 70.8408 20.6325 70.9158 20.6325H78.4279C78.503 20.6325 78.5749 20.6586 78.628 20.7052C78.6811 20.7518 78.7109 20.815 78.7109 20.8809V31.118C78.7109 31.1839 78.6811 31.247 78.628 31.2936C78.5749 31.3402 78.503 31.3664 78.4279 31.3664" fill="#1D1D1B"/>
<path d="M105.878 20.9411V31.118C105.878 32.1162 106.33 33.0735 107.134 33.7793C107.938 34.4851 109.029 34.8816 110.166 34.8816H119.762C120.899 34.8816 121.989 34.4851 122.794 33.7793C123.598 33.0735 124.049 32.1162 124.049 31.118V20.9787C124.049 19.9806 123.598 19.0233 122.794 18.3174C121.989 17.6116 120.899 17.2151 119.762 17.2151H110.131C108.994 17.2151 107.904 17.6116 107.1 18.3174C106.295 19.0233 105.844 19.9806 105.844 20.9787L105.878 20.9411ZM118.655 31.4266H111.221C111.146 31.4266 111.074 31.4004 111.02 31.3539C110.967 31.3073 110.938 31.2441 110.938 31.1782V20.8809C110.938 20.815 110.967 20.7518 111.02 20.7052C111.074 20.6586 111.146 20.6325 111.221 20.6325H118.733C118.77 20.6325 118.807 20.6389 118.841 20.6514C118.875 20.6639 118.906 20.6822 118.933 20.7052C118.959 20.7283 118.98 20.7557 118.994 20.7858C119.008 20.816 119.016 20.8483 119.016 20.8809V31.118C119.016 31.1506 119.008 31.1829 118.994 31.213C118.98 31.2432 118.959 31.2706 118.933 31.2936C118.906 31.3167 118.875 31.335 118.841 31.3475C118.807 31.36 118.77 31.3664 118.733 31.3664" fill="#1D1D1B"/>
<path d="M226.83 20.9411V31.118C226.83 32.1162 227.282 33.0735 228.086 33.7793C228.89 34.4851 229.981 34.8816 231.118 34.8816H240.714C241.851 34.8816 242.942 34.4851 243.746 33.7793C244.55 33.0735 245.002 32.1162 245.002 31.118V20.9787C245.002 19.9806 244.55 19.0233 243.746 18.3174C242.942 17.6116 241.851 17.2151 240.714 17.2151H231.092C229.955 17.2151 228.865 17.6116 228.06 18.3174C227.256 19.0233 226.805 19.9806 226.805 20.9787L226.83 20.9411ZM239.616 31.4266H232.139C232.064 31.4266 231.992 31.4004 231.938 31.3539C231.885 31.3073 231.856 31.2441 231.856 31.1782V20.8809C231.856 20.815 231.885 20.7518 231.938 20.7052C231.992 20.6586 232.064 20.6325 232.139 20.6325H239.651C239.726 20.6325 239.798 20.6586 239.851 20.7052C239.904 20.7518 239.934 20.815 239.934 20.8809V31.118C239.935 31.1509 239.928 31.1837 239.914 31.2143C239.901 31.2449 239.88 31.2727 239.853 31.296C239.827 31.3192 239.795 31.3375 239.76 31.3496C239.725 31.3617 239.688 31.3674 239.651 31.3664" fill="#1D1D1B"/>
<path d="M295.97 23.3424H288.526C288.45 23.3404 288.378 23.3126 288.325 23.2648C288.273 23.217 288.243 23.153 288.243 23.0864V17.6969C288.243 17.631 288.213 17.5678 288.16 17.5212C288.107 17.4747 288.035 17.4485 287.96 17.4485H283.51C283.434 17.4485 283.362 17.4747 283.309 17.5212C283.256 17.5678 283.227 17.631 283.227 17.6969V34.3171C283.227 34.383 283.256 34.4462 283.309 34.4928C283.362 34.5394 283.434 34.5655 283.51 34.5655H295.97C297.107 34.5655 298.197 34.169 299.001 33.4632C299.806 32.7574 300.257 31.8001 300.257 30.8019V27.0382C300.257 26.0401 299.806 25.0828 299.001 24.377C298.197 23.6711 297.107 23.2746 295.97 23.2746V23.3424ZM295.206 30.8019C295.206 30.8678 295.177 30.931 295.124 30.9775C295.07 31.0241 294.998 31.0503 294.923 31.0503H288.526C288.451 31.0503 288.379 31.0241 288.326 30.9775C288.273 30.931 288.243 30.8678 288.243 30.8019V26.9178C288.243 26.8512 288.273 26.7872 288.325 26.7395C288.378 26.6917 288.45 26.6638 288.526 26.6619H294.923C294.999 26.6638 295.071 26.6917 295.124 26.7395C295.177 26.7872 295.206 26.8512 295.206 26.9178V30.8019Z" fill="#1D1D1B"/>
<path d="M99.494 17.4485H86.7595C86.6845 17.4485 86.6125 17.4746 86.5594 17.5212C86.5064 17.5678 86.4766 17.631 86.4766 17.6969V34.3247C86.4766 34.3905 86.5064 34.4537 86.5594 34.5003C86.6125 34.5469 86.6845 34.5731 86.7595 34.5731H91.2102C91.2473 34.5731 91.2842 34.5666 91.3185 34.5542C91.3528 34.5417 91.384 34.5234 91.4103 34.5003C91.4366 34.4772 91.4574 34.4499 91.4717 34.4197C91.4859 34.3896 91.4932 34.3573 91.4932 34.3247V29.9965C91.4932 29.9306 91.523 29.8674 91.5761 29.8208C91.6291 29.7742 91.7011 29.7481 91.7762 29.7481H99.494C100.631 29.7481 101.722 29.3516 102.526 28.6457C103.33 27.9399 103.782 26.9826 103.782 25.9844V21.167C103.782 20.1688 103.33 19.2115 102.526 18.5057C101.722 17.7999 100.631 17.4033 99.494 17.4033V17.4485ZM98.7394 26.0296C98.7372 26.0961 98.7055 26.1593 98.6511 26.2057C98.5966 26.2521 98.5237 26.278 98.4478 26.278H91.7762C91.7011 26.278 91.6291 26.2518 91.5761 26.2052C91.523 26.1587 91.4932 26.0955 91.4932 26.0296V21.0766C91.4932 21.0108 91.523 20.9476 91.5761 20.901C91.6291 20.8544 91.7011 20.8282 91.7762 20.8282H98.4478C98.5237 20.8282 98.5966 20.8541 98.6511 20.9005C98.7055 20.9469 98.7372 21.0101 98.7394 21.0766V26.0296Z" fill="#1D1D1B"/>
<path d="M263.006 31.3889H253.016C252.975 31.3926 252.933 31.3881 252.894 31.3757C252.855 31.3633 252.82 31.3433 252.791 31.3172C252.762 31.2911 252.74 31.2597 252.727 31.2251C252.714 31.1906 252.71 31.154 252.716 31.1179V21.0991C252.716 21.0332 252.746 20.97 252.799 20.9235C252.852 20.8769 252.924 20.8507 252.999 20.8507H263.006C263.043 20.8507 263.08 20.8443 263.115 20.8318C263.149 20.8193 263.18 20.801 263.206 20.7779C263.233 20.7549 263.253 20.7275 263.268 20.6974C263.282 20.6672 263.289 20.6349 263.289 20.6023V17.6742C263.289 17.6416 263.282 17.6093 263.268 17.5791C263.253 17.549 263.233 17.5216 263.206 17.4985C263.18 17.4755 263.149 17.4572 263.115 17.4447C263.08 17.4322 263.043 17.4258 263.006 17.4258H251.944C250.807 17.4258 249.716 17.8223 248.912 18.5281C248.108 19.234 247.656 20.1912 247.656 21.1894V31.1179C247.656 32.1161 248.108 33.0734 248.912 33.7792C249.716 34.485 250.807 34.8816 251.944 34.8816H263.006C263.043 34.8816 263.08 34.8751 263.115 34.8627C263.149 34.8502 263.18 34.8319 263.206 34.8088C263.233 34.7857 263.253 34.7584 263.268 34.7282C263.282 34.6981 263.289 34.6658 263.289 34.6332V31.705C263.289 31.6724 263.282 31.6401 263.268 31.61C263.253 31.5799 263.233 31.5525 263.206 31.5294C263.18 31.5063 263.149 31.488 263.115 31.4756C263.08 31.4631 263.043 31.4567 263.006 31.4567" fill="#1D1D1B"/>
</g>
<defs>
<clipPath id="clip0_2535_12518">
<rect width="307" height="60" fill="white"/>
</clipPath>
</defs>
</svg>
