<?xml version="1.0" encoding="UTF-8"?>
<svg id="_Слой_1" data-name="Слой 1" xmlns="http://www.w3.org/2000/svg" viewBox="0 0 292.29 58.9">
  <defs>
    <style>
      .cls-1 {
        fill: #e73a2c;
      }

      .cls-2 {
        fill: #163f90;
      }
    </style>
  </defs>
  <g>
    <polygon class="cls-1" points="28.48 37.54 17.99 58.71 34.73 58.71 49.72 29.22 37.23 6.04 21.48 6.04 37.48 37.54 28.48 37.54 28.48 37.54"/>
    <polygon class="cls-2" points="14.99 0 0 29.49 12.49 52.67 28.23 52.67 12.24 21.17 21.24 21.17 31.73 0 14.99 0 14.99 0"/>
  </g>
  <g>
    <path class="cls-2" d="m207.82,41.11h6.46v-14.26h4.06c3.11-.11,6-3.19,6-7.48v-8c.14-5.81-3.72-7.65-6.96-7.75h-9.55v37.5h0Zm6.46-20.08c.03-3.98.05-7.95.08-11.93h.88c1.55-.08,2.54.96,2.59,3.45,0,2.31-.03,2.86-.03,5.16,0,2.15-.41,3.3-2.26,3.34-.57,0-.69-.03-1.27-.03"/>
    <path class="cls-2" d="m233.81,9.07c-.81,0-1.49.78-1.49,1.73v23.01c0,.95.67,1.73,1.49,1.73h.18c.82,0,1.48-.78,1.48-1.73V10.8c0-.95-.66-1.73-1.48-1.73h-.18Zm-8.02,1.66h.07c.12-4.31,3.17-7.79,6.89-7.79h2.69c3.79,0,6.9,3.62,6.9,8.05v22.67c0,4.43-3.11,8.05-6.9,8.05h-2.69c-3.45,0-6.33-3-6.82-6.88l-.14-.82V10.73h0Z"/>
    <polygon class="cls-2" points="68.04 41.11 62.57 41.11 62.57 3.61 72.28 3.61 74.68 27.91 75.19 27.91 77.57 3.61 87.28 3.61 87.28 41.11 81.27 41.11 81.27 13.66 80.7 13.66 77.66 41.11 71.49 41.11 68.53 13.66 68.04 13.66 68.04 41.11 68.04 41.11"/>
    <path class="cls-2" d="m88.84,10.73v23.27l.13.82c.49,3.88,3.37,6.88,6.82,6.88h2.69c3.79,0,6.89-3.62,6.89-8.05V10.99c0-4.43-3.1-8.05-6.89-8.05h-2.69c-3.72,0-6.77,3.48-6.89,7.79h-.06Zm8.02-1.66h.18c.81,0,1.48.78,1.48,1.73v23.01c0,.95-.67,1.73-1.48,1.73h-.18c-.81,0-1.48-.78-1.48-1.73V10.8c0-.95.67-1.73,1.48-1.73"/>
    <path class="cls-2" d="m107.11,10.73h.07c.12-4.31,3.17-7.79,6.89-7.79h2.69c3.79,0,6.89,3.62,6.89,8.05v6.19h-6.85v-6.38c0-.95-.67-1.73-1.48-1.73h-.18c-.81,0-1.48.78-1.48,1.73v23.01c0,.95.67,1.73,1.48,1.73h.18c.82,0,1.48-.78,1.48-1.73v-7.54h6.85v7.38c0,4.43-3.1,8.05-6.89,8.05h-2.69c-3.45,0-6.33-3-6.82-6.88l-.13-.82V10.73h0Z"/>
    <polygon class="cls-2" points="135.2 3.61 141.84 3.61 141.84 41.11 135.87 41.11 135.87 21.44 131.74 41.11 124.92 41.11 124.92 3.61 131.07 3.61 131.07 22.9 135.2 3.61 135.2 3.61"/>
    <polygon class="cls-2" points="153.37 3.61 160.2 3.61 160.2 41.11 153.37 41.11 153.37 23.35 150.1 23.35 150.1 41.11 143.28 41.11 143.28 3.61 150.1 3.61 150.1 17.29 153.37 17.29 153.37 3.61 153.37 3.61"/>
    <polygon class="cls-2" points="167.95 3.61 161.06 3.61 165.19 18.86 165.19 21.67 161.25 41.11 167.7 41.11 171.06 24.03 171.44 24.03 171.44 41.11 178.17 41.11 178.17 24.03 178.59 24.03 181.83 41.11 188.75 41.11 184.42 21.89 184.42 19.2 188.65 3.61 182.02 3.61 178.42 18.59 178.42 3.61 171.44 3.61 171.44 18.64 167.95 3.61 167.95 3.61"/>
    <polygon class="cls-2" points="189.67 41.11 189.67 3.61 206.35 3.61 206.35 41.11 199.48 41.11 199.48 9.67 196.46 9.67 196.46 41.11 189.67 41.11 189.67 41.11"/>
    <polygon class="cls-2" points="257.4 9.22 257.4 3.61 244.21 3.61 244.21 41.11 257.4 41.11 257.4 35.26 250.65 35.26 250.65 23.07 257.4 23.07 257.4 17.22 250.65 17.22 250.65 9.22 257.4 9.22 257.4 9.22"/>
    <polygon class="cls-2" points="258.43 41.11 258.43 3.61 265.08 3.61 265.08 19.01 265.69 19.01 269.37 3.61 276.02 3.61 271.32 19.49 271.32 20.81 275.71 41.11 269.06 41.11 265.48 23.36 264.97 23.37 264.97 41.11 258.43 41.11 258.43 41.11"/>
    <polygon class="cls-2" points="276.47 3.61 276.47 9.65 280.92 9.65 280.92 41.11 287.84 41.11 287.84 9.56 292.29 9.56 292.29 3.61 276.47 3.61 276.47 3.61"/>
    <g>
      <path class="cls-2" d="m68.5,49.95v1.04h-4.71v7.66h-1.22v-8.71h5.93Z"/>
      <path class="cls-2" d="m72,58.66h-1.22v-8.71h4.08c1.67,0,2.68,1.04,2.68,2.45,0,1.21-.72,2.59-2.68,2.59h-2.86v3.67Zm0-4.68h2.43c1.1,0,1.85-.4,1.85-1.57,0-1.09-.79-1.45-1.8-1.45h-2.48v3.02Z"/>
      <path class="cls-2" d="m87.48,49.95l-3.4,7.33c-.61,1.33-1.22,1.62-1.96,1.62-.31,0-.64-.05-.89-.1v-.97c.21.04.41.05.71.05.46,0,.59-.13,1-.84l-3.51-7.09h1.31l2.78,5.95,2.63-5.95h1.31Z"/>
      <path class="cls-2" d="m97.01,49.95v8.71h-1.22v-7.66h-4.73v7.66h-1.22v-8.71h7.18Z"/>
      <path class="cls-2" d="m107.28,49.95v8.71h-1.22v-7.66h-4.73v7.66h-1.22v-8.71h7.18Z"/>
      <path class="cls-2" d="m111.84,56.12l-.95,2.54h-1.26l3.41-8.71h1.39l3.27,8.71h-1.34l-.9-2.54h-3.62Zm3.18-1.03l-1.33-3.84h-.03l-1.45,3.84h2.81Z"/>
      <path class="cls-2" d="m126,54.17l4.39-4.22h1.69l-3.77,3.51,3.87,5.19h-1.58l-3.17-4.37-1.42,1.31v3.06h-1.22v-8.71h1.22v4.22Z"/>
      <path class="cls-2" d="m138.13,58.89c-3.38,0-4.41-2.7-4.41-4.58s1.02-4.58,4.41-4.58,4.41,2.7,4.41,4.58-1.02,4.58-4.41,4.58Zm0-8.12c-1.97,0-3.15,1.46-3.15,3.51s1.17,3.56,3.15,3.56,3.15-1.49,3.15-3.54-1.17-3.54-3.15-3.54Z"/>
      <path class="cls-2" d="m147.01,49.95l2.57,7.36h.03l2.58-7.36h1.74v8.71h-1.19v-5.15c0-.25.04-1.37.04-2.17h-.01l-2.56,7.32h-1.21l-2.55-7.32h-.04c0,.79.04,1.92.04,2.17v5.15h-1.19v-8.71h1.75Z"/>
      <path class="cls-2" d="m164.2,49.95v8.71h-1.22v-7.66h-4.73v7.66h-1.22v-8.71h7.18Z"/>
      <path class="cls-2" d="m168.75,56.12l-.95,2.54h-1.26l3.41-8.71h1.39l3.27,8.71h-1.34l-.9-2.54h-3.62Zm3.18-1.03l-1.33-3.84h-.03l-1.45,3.84h2.81Z"/>
      <path class="cls-2" d="m178.17,53.55h4.73v-3.6h1.22v8.71h-1.22v-4.07h-4.73v4.07h-1.22v-8.71h1.22v3.6Z"/>
      <path class="cls-2" d="m188.45,57.08h.05l4.59-7.12h1.4v8.71h-1.22v-7.03h-.03l-4.61,7.03h-1.41v-8.71h1.22v7.12Z"/>
      <path class="cls-2" d="m198.8,57.08h.05l4.59-7.12h1.4v8.71h-1.22v-7.03h-.03l-4.61,7.03h-1.41v-8.71h1.22v7.12Zm2.32-8.54c.85,0,1.11-.38,1.26-.91h.61c-.05.43-.21,1.66-1.87,1.66s-1.83-1.22-1.88-1.66h.62c.16.53.4.91,1.26.91Z"/>
    </g>
  </g>
</svg>