<svg xmlns="http://www.w3.org/2000/svg" viewBox="0 0 429.14 60.35" style="fill: #004A8C;">
    <g>
        <path d="M34.36,40.56c0-11.76,7.06-21.82,17.19-26.23l-.02-.02v26.19l-5.68-.02v-14.79l-.02-.27c-3.62,4.05-5.72,9.29-5.72,15.15h-5.76Z"></path>
        <path d="M0,40.56C0,18.46,17.92,.54,40.02,.54h.25s22.71,0,22.71,0V40.48h-5.88V6.91l.4-.18c-9.61,1.55-17.88,7.09-23.06,14.87l-.07-.05V6.64C18.13,9.34,5.73,23.48,5.73,40.51l-5.73,.05Z"></path>
        <path d="M17.12,40.43c0-5.91,2.23-11.29,5.9-15.36l-.04,.33v15.06l5.84,.02-.03-26.02,.02-.22c-10.18,4.38-17.3,14.48-17.3,26.27h5.6v-.1Z"></path>
        <rect x=".04" y="54.44" width="63.3" height="5.55"></rect>
        <rect x=".04" y="43.25" width="63.3" height="2.78"></rect>
        <rect x=".04" y="48.79" width="63.3" height="2.78"></rect>
        <path d="M86.07,.66l5.23,34.49,.43,4.32h.33l.42-4.32L97.63,.66h16.36V59.69h-11.05V21.99l.34-6.57h-.34l-.68,5.99-5.65,38.28h-9.44l-5.65-38.28-.59-5.99h-.34l.25,6.57V59.69h-11.05V.66h16.27Z"></path>
        <path d="M136.3,60.35c-12.56,0-17.03-6.56-17.03-30.18S123.65,0,136.3,0s17.03,6.39,17.03,30.17-4.38,30.18-17.03,30.18Zm0-49.82c-4.05,0-4.3,4.64-4.3,19.73s.17,19.56,4.3,19.56,4.39-4.55,4.39-19.56-.25-19.73-4.39-19.73Z"></path>
        <path d="M183.94,11.2c-1.96,.03-2.2-.02-4.72-.02-7.25,0-7.84,4.5-7.84,18.91s.59,19.3,8.01,19.3c2.87,0,4.56,.06,4.98-.11l.61,10.14c-.59,.17-3.05,.5-7.69,.5-14.34,0-18.64-5.54-18.64-29.49S162.94,.43,177.54,.43c4.21,0,5.33,.21,6.86,.31l-.45,10.46Z"></path>
        <path d="M199.73,.66h22.95V11.62h-10.58V59.69h-12.06V11.62h-12.53s-.11-10.96,12.22-10.96Z"></path>
        <path d="M272.48,.66h22.95V11.62h-10.58V59.69h-12.06V11.62h-12.53s-.11-10.96,12.22-10.96Z"></path>
        <path d="M406.19,.66h22.95V11.62h-10.58V59.69h-12.06V11.62h-12.53s-.11-10.96,12.22-10.96Z"></path>
        <path d="M390.37,11.2c-1.96,.03-2.2-.02-4.72-.02-7.25,0-7.85,4.5-7.85,18.91s.59,19.3,8.01,19.3c2.87,0,4.56,.06,4.98-.11l.61,10.14c-.59,.17-3.05,.5-7.69,.5-14.34,0-18.64-5.54-18.64-29.49S369.37,.43,383.96,.43c4.21,0,5.33,.21,6.86,.31l-.45,10.46Z"></path>
        <path d="M242.37,60.35c-12.56,0-17.03-6.56-17.03-30.18S229.72,0,242.37,0s17.03,6.39,17.03,30.17-4.38,30.18-17.03,30.18Zm0-49.82c-4.05,0-4.3,4.64-4.3,19.73s.17,19.56,4.3,19.56,4.38-4.55,4.38-19.56-.25-19.73-4.38-19.73Z"></path>
        <path d="M309.69,.66c9.57,0,7.52,0,7.52,0,9.53,0,12.82,5.14,12.82,20.49s-3.8,20.75-12.82,20.75h-5.57v17.79h-12.14V11.36s0-10.69,10.19-10.69Zm1.95,30.35h1.86c3.12,0,3.88-1.85,3.88-9.7s-.67-9.7-3.88-9.7h-1.86V31.02Z"></path>
        <path d="M346.12,.66h14.27V11.62h-12.48v12.4h10.79v10.96h-10.79v13.75h12.73v10.96h-24.87V10.59s-.08-9.93,10.36-9.93Z"></path>
    </g>
</svg>